<svg width="25" height="24" viewBox="0 0 25 24" fill="none" xmlns="http://www.w3.org/2000/svg">
<path d="M8.24118 11C9.06961 11 9.74118 10.3284 9.74118 9.5C9.74118 8.67157 9.06961 8 8.24118 8C7.41275 8 6.74118 8.67157 6.74118 9.5C6.74118 10.3284 7.41275 11 8.24118 11Z" fill="#656565"/>
<path d="M11.2412 14L9.74118 12L6.74118 16H18.7412L14.2412 10L11.2412 14Z" fill="#656565"/>
<path d="M20.7412 4H4.74118C3.63818 4 2.74118 4.897 2.74118 6V18C2.74118 19.103 3.63818 20 4.74118 20H20.7412C21.8442 20 22.7412 19.103 22.7412 18V6C22.7412 4.897 21.8442 4 20.7412 4ZM4.74118 18V6H20.7412L20.7432 18H4.74118Z" fill="#656565"/>
</svg>
