<svg width="20" height="20" viewBox="0 0 20 20" fill="none" xmlns="http://www.w3.org/2000/svg">
<path d="M7.71429 7.78571V14.2143C7.71429 14.3185 7.6808 14.404 7.61384 14.471C7.54687 14.5379 7.46131 14.5714 7.35714 14.5714H6.64286C6.53869 14.5714 6.45312 14.5379 6.38616 14.471C6.3192 14.404 6.28571 14.3185 6.28571 14.2143V7.78571C6.28571 7.68155 6.3192 7.59598 6.38616 7.52902C6.45312 7.46205 6.53869 7.42857 6.64286 7.42857H7.35714C7.46131 7.42857 7.54687 7.46205 7.61384 7.52902C7.6808 7.59598 7.71429 7.68155 7.71429 7.78571ZM10.5714 7.78571V14.2143C10.5714 14.3185 10.5379 14.404 10.471 14.471C10.404 14.5379 10.3185 14.5714 10.2143 14.5714H9.5C9.39583 14.5714 9.31027 14.5379 9.2433 14.471C9.17634 14.404 9.14286 14.3185 9.14286 14.2143V7.78571C9.14286 7.68155 9.17634 7.59598 9.2433 7.52902C9.31027 7.46205 9.39583 7.42857 9.5 7.42857H10.2143C10.3185 7.42857 10.404 7.46205 10.471 7.52902C10.5379 7.59598 10.5714 7.68155 10.5714 7.78571ZM13.4286 7.78571V14.2143C13.4286 14.3185 13.3951 14.404 13.3281 14.471C13.2612 14.5379 13.1756 14.5714 13.0714 14.5714H12.3571C12.253 14.5714 12.1674 14.5379 12.1004 14.471C12.0335 14.404 12 14.3185 12 14.2143V7.78571C12 7.68155 12.0335 7.59598 12.1004 7.52902C12.1674 7.46205 12.253 7.42857 12.3571 7.42857H13.0714C13.1756 7.42857 13.2612 7.46205 13.3281 7.52902C13.3951 7.59598 13.4286 7.68155 13.4286 7.78571ZM14.8571 15.8661V5.28571H4.85714V15.8661C4.85714 16.0298 4.88318 16.1804 4.93527 16.3181C4.98735 16.4557 5.04129 16.5562 5.0971 16.6194C5.1529 16.6827 5.19196 16.7143 5.21429 16.7143H14.5C14.5223 16.7143 14.5614 16.6827 14.6172 16.6194C14.673 16.5562 14.7269 16.4557 14.779 16.3181C14.8311 16.1804 14.8571 16.0298 14.8571 15.8661ZM7.35714 3.85714H12.3571L11.8214 2.55134C11.7693 2.48437 11.7061 2.44345 11.6317 2.42857H8.09375C8.01934 2.44345 7.9561 2.48437 7.90402 2.55134L7.35714 3.85714ZM17.7143 4.21429V4.92857C17.7143 5.03274 17.6808 5.1183 17.6138 5.18527C17.5469 5.25223 17.4613 5.28571 17.3571 5.28571H16.2857V15.8661C16.2857 16.4836 16.1109 17.0175 15.7612 17.4676C15.4115 17.9178 14.9911 18.1429 14.5 18.1429H5.21429C4.72321 18.1429 4.30283 17.9252 3.95312 17.49C3.60342 17.0547 3.42857 16.5283 3.42857 15.9107V5.28571H2.35714C2.25298 5.28571 2.16741 5.25223 2.10045 5.18527C2.03348 5.1183 2 5.03274 2 4.92857V4.21429C2 4.11012 2.03348 4.02455 2.10045 3.95759C2.16741 3.89062 2.25298 3.85714 2.35714 3.85714H5.8058L6.58705 1.9933C6.69866 1.71801 6.89955 1.48363 7.18973 1.29018C7.47991 1.09673 7.77381 1 8.07143 1H11.6429C11.9405 1 12.2344 1.09673 12.5246 1.29018C12.8147 1.48363 13.0156 1.71801 13.1272 1.9933L13.9085 3.85714H17.3571C17.4613 3.85714 17.5469 3.89062 17.6138 3.95759C17.6808 4.02455 17.7143 4.11012 17.7143 4.21429Z" fill="#495057"/>
</svg>
