<svg width="20" height="20" viewBox="0 0 20 20" fill="none" xmlns="http://www.w3.org/2000/svg">
<path d="M5.47993 17.1428L6.49555 16.1272L3.87279 13.5045L2.85716 14.5201V15.7143H4.28573V17.1428H5.47993ZM11.317 6.7857C11.317 6.62201 11.2351 6.54017 11.0714 6.54017C10.997 6.54017 10.9338 6.56621 10.8817 6.61829L4.83261 12.6674C4.78052 12.7195 4.75448 12.7827 4.75448 12.8571C4.75448 13.0208 4.83633 13.1027 5.00002 13.1027C5.07442 13.1027 5.13767 13.0766 5.18975 13.0245L11.2389 6.97543C11.2909 6.92335 11.317 6.86011 11.317 6.7857ZM10.7143 4.64284L15.3572 9.2857L6.07145 18.5714H1.42859V13.9286L10.7143 4.64284ZM18.3371 5.71427C18.3371 6.10862 18.1994 6.44344 17.9241 6.71874L16.0714 8.57141L11.4286 3.92856L13.2813 2.08704C13.5491 1.8043 13.8839 1.66293 14.2857 1.66293C14.6801 1.66293 15.0186 1.8043 15.3014 2.08704L17.9241 4.69865C18.1994 4.98883 18.3371 5.32737 18.3371 5.71427Z" fill="#495057"/>
</svg>
